# xmcd
#
# Track frame offsets: 
#        150
#        20554
#        37034
#        51745
#        72486
#        101269
#        118683
#        131743
#        149746
#        165421
#        188646
#        199923
#        220702
#        245916
#
# Disc length: 3864 seconds
#
# Revision: 1
# Processed by: cddbd v1.5.2PL0 Copyright (c) Steve Scherf et al.
# Submitted via: ExactAudioCopy v0.99pb4
#
DISCID=de0f160e
DTITLE=Primal Scream - Riot City Blues (USA version)
DYEAR=2006
DGENRE=Swamp Rock
TTITLE0=Country Girl
TTITLE1=Nitty Gritty
TTITLE2=Suicide Sally and Johnny Guitar
TTITLE3=When the Bomb Drops
TTITLE4=Little Death
TTITLE5=The 99th Floor
TTITLE6=We're Gonna Boogie
TTITLE7=Dolls (Sweet Rock and Roll)
TTITLE8=Hell's Comin' Down
TTITLE9=Sometimes I Feel So Lonely
TTITLE10=Stone Ya to the Bone
TTITLE11=Gimme Some Truth
TTITLE12=Suicide Sally and Johnny Guitar (Live @ XFM)
TTITLE13=Enchanced CD Data (including Country Girl video)
EXTD=
EXTT0=
EXTT1=
EXTT2=
EXTT3=
EXTT4=
EXTT5=
EXTT6=
EXTT7=
EXTT8=
EXTT9=
EXTT10=
EXTT11=
EXTT12=
EXTT13=
PLAYORDER=
